<svg width="330" height="30" fill="none" xmlns="http://www.w3.org/2000/svg"><g clip-path="url(#clip0)"><path d="M176.512.292h1.133V29.31h-1.133V.292z" fill="#FF3A4F"/><path d="M47.753.342A8.324 8.324 0 0149.107.25c.535 0 .975.03 1.337.092l-5.697 9.85a8.096 8.096 0 01-1.338.091c-.535 0-.99-.03-1.354-.09l2.062-3.547L40.465.343A8.323 8.323 0 0141.82.251c.535 0 .976.03 1.338.092l2.298 4.182L47.753.342zm12.622 0a7.68 7.68 0 012.503 0v9.85a7.715 7.715 0 01-2.502 0v-3.97H56.14v3.969a7.666 7.666 0 01-2.501 0V.343a7.665 7.665 0 012.5 0v3.864h4.236V.342h-.001zm15.502 9.85a7.72 7.72 0 01-2.503 0V4.42l-4.77 5.773a6.103 6.103 0 01-1.966 0V.342a7.665 7.665 0 012.501 0v5.773L73.91.342a6.12 6.12 0 011.968 0v9.85zM84.013.327c.991 0 1.795.242 2.41.728.612.484.926 1.107.926 1.864 0 1-.471 1.727-1.4 2.182.488.212.882.515 1.165.909.283.394.425.864.425 1.395 0 .863-.315 1.546-.943 2.046-.632.5-1.482.741-2.552.741h-4.437V.342l4.406-.016zm-1.888 4.061h1.606c.331 0 .6-.09.803-.272.205-.181.3-.438.3-.757 0-.681-.364-1.015-1.104-1.015h-1.606V4.39l.001-.002zm0 3.788h1.764c.74 0 1.102-.35 1.102-1.061 0-.682-.394-1.031-1.197-1.031h-1.67v2.092h.001zm15.786 0a5.407 5.407 0 010 2.016h-7.13V.342h7.13a5.407 5.407 0 010 2.015H93.3v1.848h4.075a5.411 5.411 0 010 2.016H93.3v1.954h4.61v.002zm7.317-7.834c1.149 0 2.078.303 2.787.908.708.608 1.07 1.41 1.07 2.395 0 .985-.362 1.787-1.07 2.394-.709.606-1.638.908-2.787.908h-1.495v3.244a7.75 7.75 0 01-2.501 0V.34h3.996v.001zm-.016 4.562a1.4 1.4 0 00.929-.319c.252-.21.379-.529.379-.953 0-.424-.126-.743-.378-.954a1.36 1.36 0 00-.913-.32h-1.496v2.577l1.48-.03-.001-.001zm12.781 3.47c.927 0 1.919-.319 2.974-.94.078.121.11.47.094 1.061s-.048.97-.11 1.137c-.849.5-1.888.758-3.116.758-1.748 0-3.148-.5-4.203-1.485-1.055-.984-1.574-2.213-1.574-3.667 0-1.455.535-2.682 1.59-3.667 1.054-.985 2.455-1.485 4.203-1.485 1.227 0 2.266.259 3.116.758.064.167.094.546.11 1.137.016.59-.016.938-.094 1.061-1.055-.623-2.046-.94-2.975-.94-.961 0-1.764.288-2.409.863-.646.577-.96 1.334-.96 2.289 0 .954.314 1.712.96 2.288.645.576 1.448.863 2.408.863l-.016-.03.002-.001zm16.036 1.818a7.711 7.711 0 01-2.502 0V4.42l-4.77 5.773a6.105 6.105 0 01-1.966 0V.342a7.665 7.665 0 012.501 0v5.773l4.77-5.773a6.12 6.12 0 011.968 0v9.85h-.001zm11.269-9.85a5.42 5.42 0 010 2.016h-2.771v7.834a7.711 7.711 0 01-2.502 0V2.358h-2.77a5.337 5.337 0 010-2.016h8.043zm10.419 7.835a5.462 5.462 0 010 2.015h-7.131V.342h7.131a5.462 5.462 0 010 2.015h-4.612v1.848h4.076a5.42 5.42 0 010 2.016h-4.076v1.954h4.612v.002zm10.86-7.835a5.462 5.462 0 010 2.016h-2.771v7.834a7.711 7.711 0 01-2.502 0V2.358h-2.77a5.337 5.337 0 010-2.016h8.043zM49.197 26.38c1.455 0 3.01-.498 4.662-1.472.123.189.173.736.149 1.661-.026.926-.074 1.521-.173 1.781-1.332.783-2.96 1.187-4.884 1.187-2.737 0-4.932-.785-6.586-2.327-1.651-1.544-2.465-3.468-2.465-5.746 0-2.279.839-4.203 2.49-5.746 1.654-1.544 3.85-2.328 6.587-2.328 1.924 0 3.552.404 4.884 1.188.098.261.149.855.173 1.781.024.926-.024 1.472-.149 1.662-1.652-.974-3.206-1.472-4.662-1.472-1.504 0-2.762.452-3.773 1.354-1.011.902-1.504 2.088-1.504 3.585 0 1.496.493 2.684 1.504 3.586 1.011.902 2.27 1.354 3.773 1.354l-.023-.047-.002-.001zm22.668 2.849a12.124 12.124 0 01-3.923 0v-9.047l-7.474 9.047a9.552 9.552 0 01-3.083 0V13.795a12.064 12.064 0 013.921 0v9.046l7.475-9.046a9.607 9.607 0 013.084 0v15.434zm13.959-15.434a12.064 12.064 0 013.92 0v15.434a12.113 12.113 0 01-3.92 0v-6.221h-6.637v6.22a12.109 12.109 0 01-3.92 0V13.796a12.064 12.064 0 013.92 0v6.055h6.635v-6.055h.002zm18.571 12.274a8.514 8.514 0 010 3.159H93.223V13.795h11.172a8.505 8.505 0 010 3.156h-7.227v2.898h6.389a8.514 8.514 0 010 3.159h-6.389v3.061h7.227zm9.002-12.275c1.801 0 3.256.475 4.366 1.425 1.11.95 1.678 2.208 1.678 3.752 0 1.543-.568 2.801-1.678 3.751-1.111.95-2.565 1.423-4.366 1.423h-2.343v5.082a11.989 11.989 0 01-3.923 0V13.794h6.266zm-.024 7.148c.567 0 1.06-.167 1.454-.498.395-.333.593-.83.593-1.496s-.198-1.163-.591-1.496c-.396-.333-.865-.5-1.432-.5h-2.343v4.039l2.319-.05zm19.46-7.147a8.505 8.505 0 010 3.156h-6.61v12.277a12.122 12.122 0 01-3.923 0V13.796h10.533zm17.116 15.434a12.11 12.11 0 01-3.921 0v-9.047l-7.474 9.047a9.548 9.548 0 01-3.082 0V13.795a12.065 12.065 0 013.921 0v9.046l7.474-9.046a9.593 9.593 0 013.082 0v15.434zm15.712-.024a12.078 12.078 0 01-3.924 0v-5.223h-1.528l-3.527 5.223c-.567.095-1.282.143-2.145.143s-1.579-.048-2.147-.143l3.896-5.793c-.962-.404-1.701-.998-2.243-1.781-.544-.785-.815-1.685-.815-2.708 0-1.52.543-2.754 1.628-3.704 1.085-.95 2.541-1.424 4.341-1.424h6.486l-.024 15.41h.002zm-6.438-12.277c-.567 0-1.036.167-1.43.498-.396.333-.592.808-.592 1.45 0 .64.196 1.115.592 1.448.394.334.887.5 1.454.5h2.467v-3.895h-2.491v-.001zm33.919-12.033c1.452 0 2.591.359 3.436 1.096.844.737 1.256 1.644 1.256 2.74 0 1.077-.413 1.985-1.257 2.722-.845.737-1.982 1.096-3.436 1.096h-4.73V.265h8.204a3.861 3.861 0 010 1.644h-6.202v2.986h2.729zm.02 6.01c.844 0 1.491-.208 1.962-.623.472-.417.708-.947.708-1.57 0-.642-.236-1.171-.707-1.587-.471-.416-1.119-.623-1.962-.623h-2.728v4.44l2.728-.038h-.001zM206.701.038c1.964 0 3.574.624 4.831 1.871 1.256 1.246 1.884 2.759 1.884 4.554 0 1.795-.628 3.308-1.884 4.554-1.257 1.248-2.867 1.872-4.83 1.872-1.961 0-3.571-.624-4.828-1.871-1.256-1.248-1.885-2.779-1.885-4.573 0-1.796.629-3.327 1.885-4.574C203.13.625 204.74 0 206.701 0v.038zm-3.335 2.985c-.883.908-1.334 2.062-1.334 3.46 0 1.397.45 2.55 1.334 3.458.882.907 2.003 1.36 3.337 1.36s2.453-.453 3.338-1.36c.882-.907 1.334-2.06 1.334-3.458 0-1.398-.452-2.551-1.334-3.458-.883-.907-2.004-1.36-3.339-1.36-1.334 0-2.454.453-3.337 1.361l.001-.003zm23.277 9.563a5.103 5.103 0 01-2.003 0V1.928h-4.71l-.765 7.219c-.138 1.248-.472 2.174-1.021 2.798-.55.623-1.336.926-2.356.926-.392 0-.726-.039-1.02-.131a3.833 3.833 0 010-1.645c.175.037.334.056.49.056.549 0 .981-.169 1.295-.51.314-.34.511-.907.588-1.682l.943-8.674h8.54l.019 12.301zm7.828-8.012c1.472 0 2.63.377 3.474 1.134.845.755 1.277 1.719 1.277 2.872 0 1.152-.413 2.098-1.256 2.854-.845.755-2.002 1.133-3.476 1.133h-4.69V.285a5.069 5.069 0 012.002 0v4.289h2.669zm.02 6.35c.844 0 1.51-.228 1.982-.662.471-.435.706-1.002.706-1.7 0-.7-.236-1.267-.707-1.702-.472-.435-1.139-.662-1.982-.662h-2.689v4.743l2.688-.018h.002zM256.042.283a5.16 5.16 0 012.02 0v12.283h-16.096V.285a5.069 5.069 0 012.002 0V10.94h5.045V.285a5.068 5.068 0 012.002 0V10.94h5.024V.285h.003zm13.911 10.6a3.318 3.318 0 010 1.645h-8.675V.246h8.676a3.315 3.315 0 010 1.644h-6.675v3.59h6.065c.12.55.12 1.097 0 1.645h-6.065v3.817l6.675-.057h-.001zM284.397.323a5.195 5.195 0 012.021 0v12.284c-.668.13-1.336.13-2.021 0V7.048c-.353.36-.883.68-1.571.964a5.786 5.786 0 01-2.217.435c-1.296 0-2.297-.377-3.004-1.115-.707-.737-1.059-1.72-1.059-2.929v-4.1a5.069 5.069 0 012.002 0v3.835c0 1.777.903 2.666 2.709 2.666.687 0 1.315-.132 1.885-.416.568-.284 1.001-.586 1.295-.907l-.04-5.16zm13.953 10.563a3.318 3.318 0 010 1.644h-8.676V.246h8.676a3.315 3.315 0 010 1.644h-6.675v3.59h6.065c.12.55.12 1.097 0 1.645h-6.065v3.817l6.675-.057zm17.859 1.682a4.81 4.81 0 01-1.944 0l-2.062-8.863-3.297 8.863a4.035 4.035 0 01-1.646 0l-3.3-8.863-2.06 8.863a4.81 4.81 0 01-1.944 0L302.939.285a4.257 4.257 0 011.708 0l3.455 9.258 3.455-9.258a4.247 4.247 0 011.706 0l2.946 12.282zm-121.575 4.23c1.963 0 3.571.625 4.829 1.872 1.257 1.246 1.886 2.76 1.886 4.554 0 1.795-.629 3.308-1.886 4.554-1.256 1.248-2.865 1.87-4.829 1.87-1.962 0-3.571-.622-4.828-1.868-1.257-1.247-1.886-2.78-1.886-4.575 0-1.796.63-3.326 1.886-4.573 1.256-1.246 2.866-1.87 4.828-1.87v.037-.001zm-3.337 2.987c-.882.906-1.335 2.06-1.335 3.456 0 1.399.452 2.552 1.335 3.459s2.003 1.361 3.337 1.361c1.335 0 2.453-.454 3.338-1.361.883-.908 1.334-2.062 1.334-3.46 0-1.397-.45-2.55-1.334-3.457-.883-.907-2.002-1.361-3.338-1.361-1.334 0-2.453.454-3.336 1.361l-.001.002zm17.525 1.87c1.453 0 2.591.36 3.436 1.095.844.739 1.256 1.645 1.256 2.741 0 1.077-.412 1.985-1.257 2.722-.844.736-1.982 1.096-3.436 1.096h-4.73V17.025h8.206a3.897 3.897 0 010 1.644h-6.203v2.986h2.728v-.001zm.02 6.01c.843 0 1.489-.207 1.962-.624.471-.415.707-.944.707-1.57 0-.64-.236-1.168-.707-1.584-.472-.417-1.119-.625-1.963-.625h-2.729v4.44l2.728-.038.002.002zm11.99-10.62c1.472 0 2.631.376 3.474 1.133.845.755 1.277 1.72 1.277 2.892 0 1.152-.412 2.116-1.254 2.872-.846.756-2.003 1.134-3.476 1.134h-2.689v4.251a5.098 5.098 0 01-2.002 0V17.043h4.67zm.019 6.424c.844 0 1.511-.227 1.982-.66.471-.435.706-1.021.706-1.739 0-.719-.235-1.304-.707-1.738-.471-.436-1.138-.662-1.981-.662h-2.69v4.799h2.69zm17.586 5.858a5.406 5.406 0 01-2.062 0l-1.294-3.08h-5.557l-1.275 3.08a5.406 5.406 0 01-2.062 0l5.3-12.284a4.22 4.22 0 011.689 0l5.261 12.283v.001zm-4.004-4.705l-2.141-5.102-2.139 5.102h4.28zm12.755-1.662c.747.244 1.316.642 1.709 1.19a3.16 3.16 0 01.588 1.89c0 1.097-.432 1.966-1.295 2.61-.864.641-2.003.961-3.396.961-1.63 0-3.004-.358-4.123-1.077-.058-.13-.098-.432-.098-.906 0-.472.04-.774.118-.889a7.001 7.001 0 004.044 1.267c.783 0 1.451-.19 1.98-.567.531-.38.807-.908.807-1.588 0-.587-.197-1.058-.589-1.436-.392-.38-.982-.57-1.766-.57h-2.121a2.923 2.923 0 010-1.53h2.082c.628 0 1.139-.189 1.512-.549.373-.359.567-.83.567-1.396a1.81 1.81 0 00-.647-1.436c-.431-.378-1.019-.568-1.766-.568-1.334 0-2.63.416-3.886 1.247-.08-.093-.12-.377-.12-.849s.042-.775.099-.908c1.1-.717 2.434-1.075 3.986-1.075 1.315 0 2.354.301 3.121.925.765.623 1.158 1.417 1.158 2.382 0 .662-.179 1.246-.53 1.757-.353.51-.825.887-1.415 1.133l-.019-.018zm10.95-6.162c1.963 0 3.572.625 4.83 1.872 1.256 1.246 1.884 2.76 1.884 4.554 0 1.795-.628 3.308-1.884 4.554-1.257 1.248-2.867 1.87-4.83 1.87-1.962 0-3.571-.622-4.828-1.868-1.257-1.247-1.884-2.78-1.884-4.575 0-1.796.628-3.326 1.885-4.573 1.257-1.246 2.866-1.87 4.828-1.87v.037l-.001-.001zm-3.336 2.987c-.883.906-1.336 2.06-1.336 3.456 0 1.399.452 2.552 1.335 3.459s2.003 1.361 3.337 1.361c1.335 0 2.453-.454 3.338-1.361.883-.908 1.334-2.062 1.334-3.46 0-1.397-.45-2.55-1.334-3.457-.883-.907-2.003-1.361-3.338-1.361-1.334 0-2.454.454-3.337 1.361l.001.002zm17.976-2.723c1.177 0 2.139.285 2.885.871.747.585 1.118 1.342 1.118 2.267 0 .643-.156 1.209-.49 1.682a3.09 3.09 0 01-1.374 1.078c.727.243 1.276.622 1.668 1.133.393.51.589 1.115.589 1.813 0 1.039-.393 1.871-1.177 2.493-.786.625-1.846.927-3.201.927h-5.203V17.043l5.184.02.001-.002zm-3.16 10.697h3.082c.767 0 1.374-.189 1.806-.548.431-.36.647-.85.647-1.474 0-.585-.196-1.06-.607-1.418-.413-.359-1.002-.529-1.787-.529h-3.119l-.02 3.97-.002-.001zm.02-5.348h3.081c.65 0 1.159-.17 1.532-.51.373-.338.569-.792.569-1.361 0-.585-.197-1.039-.609-1.36-.413-.322-.943-.493-1.609-.493h-2.965v3.723l.001.001zm21.256 6.916a5.406 5.406 0 01-2.062 0l-1.294-3.08h-5.557l-1.275 3.08a5.4 5.4 0 01-2.061 0l5.3-12.284a4.22 4.22 0 011.689 0l5.261 12.283-.001.001zm-4.005-4.705l-2.141-5.102-2.139 5.102h4.28zm15.347-7.578a5.098 5.098 0 012.002 0v12.285c-.688.13-1.354.13-2.002 0v-5.443h-7.007v5.442a5.103 5.103 0 01-2.003 0V17.042a5.155 5.155 0 012.002 0v5.216h7.007v-5.216l.001.001zm16.152 12.283a5.076 5.076 0 01-2.003 0v-9.052l-7.38 9.052a4.49 4.49 0 01-1.59 0V17.043a5.098 5.098 0 012.002 0v9.054l7.399-9.054a3.768 3.768 0 011.59 0l-.018 12.283zm11.832-1.681a3.339 3.339 0 010 1.643h-8.676V17.005h8.676a3.342 3.342 0 010 1.645h-6.675v3.59h6.066a3.857 3.857 0 010 1.644h-6.065V27.7l6.674-.057z" fill="#082CAF"/><path d="M0 29.33h30.18V.274H0V29.33zm26.408-3.634H3.773V3.906h22.635v21.79zm-7.664-1.246L8.722 14.802l10.022-9.65v5.137l-4.688 4.513 4.688 4.513v5.135z" fill="#FF3A4F"/></g><defs><clipPath id="clip0"><path fill="#fff" d="M0 0h330v30H0z"/></clipPath></defs></svg>