<svg width="153" height="28" fill="none" xmlns="http://www.w3.org/2000/svg"><path d="M43.725.24a7.48 7.48 0 011.24-.087c.49 0 .892.029 1.225.086l-5.217 9.193a7.329 7.329 0 01-1.225.085 7.67 7.67 0 01-1.24-.085l1.888-3.31L37.052.24a7.48 7.48 0 011.24-.086 7.3 7.3 0 011.225.086l2.104 3.903L43.725.24zm11.557 0a6.9 6.9 0 012.293 0v9.192a6.934 6.934 0 01-2.292 0V5.726h-3.877v3.705a6.887 6.887 0 01-2.29 0V.24a6.888 6.888 0 012.29 0v3.606h3.877V.239zm14.196 9.192a6.94 6.94 0 01-2.293 0V4.044l-4.367 5.388c-.59.1-1.196.1-1.8 0V.24a6.888 6.888 0 012.29 0v5.388L67.676.24a5.5 5.5 0 011.802 0v9.193zm7.45-9.207c.906 0 1.642.226 2.205.679.561.452.849 1.034.849 1.74 0 .934-.432 1.612-1.282 2.036.446.198.807.481 1.066.849.26.368.39.806.39 1.302 0 .805-.29 1.443-.864 1.91-.578.466-1.357.691-2.336.691h-4.063V.238l4.034-.013zm-1.73 3.79h1.47c.304 0 .55-.084.736-.254.188-.17.274-.409.274-.706 0-.636-.332-.948-1.01-.948h-1.47v1.91-.002zm0 3.536h1.615c.678 0 1.01-.326 1.01-.991 0-.636-.361-.962-1.096-.962h-1.53l.001 1.953zm14.455 0a5.144 5.144 0 010 1.881h-6.53V.238h6.53a5.144 5.144 0 010 1.881H85.43v1.726h3.731a5.144 5.144 0 010 1.88H85.43V7.55h4.222v.002zm6.7-7.312c1.052 0 1.902.282 2.551.847.65.567.98 1.316.98 2.236 0 .919-.33 1.668-.98 2.234-.649.566-1.5.847-2.551.847h-1.37v3.028a6.964 6.964 0 01-2.29 0V.238l3.66.001zm-.015 4.258c.332 0 .62-.1.85-.298.232-.196.347-.494.347-.89 0-.395-.115-.693-.346-.89a1.23 1.23 0 00-.835-.298h-1.37v2.405l1.355-.029zm11.703 3.238c.849 0 1.757-.297 2.723-.877.072.113.101.438.086.99-.014.552-.044.905-.101 1.061-.777.467-1.728.708-2.853.708-1.6 0-2.883-.467-3.848-1.386-.966-.919-1.442-2.065-1.442-3.423s.49-2.503 1.456-3.422C105.028.466 106.311 0 107.911 0c1.123 0 2.075.241 2.853.707.059.156.086.51.101 1.061.015.552-.015.876-.086.991-.966-.581-1.873-.878-2.724-.878-.88 0-1.616.27-2.206.806-.591.539-.88 1.245-.88 2.136 0 .89.289 1.598.88 2.136.59.537 1.326.806 2.205.806l-.015-.03h.002zm14.684 1.697a6.937 6.937 0 01-2.292 0V4.044l-4.368 5.388c-.589.1-1.194.1-1.799 0V.24a6.887 6.887 0 012.29 0v5.388L120.924.24a5.5 5.5 0 011.802 0l-.001 9.193zM133.043.24a5.17 5.17 0 010 1.881h-2.537v7.312a6.937 6.937 0 01-2.292 0V2.12h-2.536a5.084 5.084 0 010-1.88h7.365zm9.54 7.312a5.17 5.17 0 010 1.881h-6.529V.238h6.529a5.17 5.17 0 010 1.881h-4.223v1.726h3.733a5.17 5.17 0 010 1.88h-3.733V7.55h4.223v.002zM152.527.24a5.17 5.17 0 010 1.881h-2.537v7.312a6.931 6.931 0 01-2.291 0V2.12h-2.536a5.084 5.084 0 010-1.88h7.364zM45.048 24.541c1.332 0 2.756-.465 4.269-1.374.112.176.158.687.136 1.55-.024.864-.068 1.42-.159 1.663-1.22.73-2.71 1.107-4.472 1.107-2.506 0-4.516-.732-6.03-2.171-1.512-1.441-2.258-3.237-2.258-5.363 0-2.127.768-3.923 2.28-5.364 1.515-1.44 3.526-2.172 6.032-2.172 1.762 0 3.253.377 4.472 1.108.09.245.136.799.158 1.663.022.865-.022 1.374-.136 1.551-1.512-.909-2.935-1.373-4.268-1.373-1.378 0-2.53.421-3.455 1.263-.926.842-1.378 1.95-1.378 3.346 0 1.396.452 2.505 1.378 3.347.925.842 2.078 1.263 3.455 1.263l-.022-.043-.002-.001zM65.803 27.2a10.889 10.889 0 01-3.592 0v-8.444L55.368 27.2a8.58 8.58 0 01-2.823 0V12.795c1.197-.2 2.393-.2 3.59 0v8.443l6.844-8.443a8.628 8.628 0 012.824 0V27.2zm12.782-14.405c1.197-.2 2.393-.2 3.59 0V27.2a10.88 10.88 0 01-3.59 0v-5.807h-6.077V27.2a10.875 10.875 0 01-3.59 0V12.796c1.197-.2 2.394-.2 3.59 0v5.651h6.076v-5.651h.001zM95.59 24.25c.18.976.18 1.953 0 2.948H85.36V12.795h10.23a8.07 8.07 0 010 2.946h-6.617v2.704h5.85c.18.998.18 1.973 0 2.948h-5.85v2.858h6.617zm8.242-11.457c1.65 0 2.982.444 3.998 1.33 1.017.887 1.537 2.06 1.537 3.502 0 1.44-.52 2.614-1.537 3.501s-2.348 1.328-3.998 1.328h-2.145v4.743a10.769 10.769 0 01-3.592 0V12.794h5.737zm-.021 6.671c.519 0 .97-.155 1.331-.465.362-.31.543-.775.543-1.396 0-.62-.181-1.085-.541-1.396-.363-.31-.792-.466-1.312-.466h-2.145v3.769l2.124-.046zm17.818-6.67a8.061 8.061 0 010 2.946h-6.052V27.2a10.892 10.892 0 01-3.593 0V12.795h9.645zM137.302 27.2a10.88 10.88 0 01-3.591 0v-8.444l-6.843 8.444a8.583 8.583 0 01-2.823 0V12.795c1.197-.2 2.393-.2 3.591 0v8.443l6.843-8.443a8.622 8.622 0 012.823 0V27.2zm14.386-.023c-1.197.2-2.394.2-3.592 0v-4.875h-1.4l-3.229 4.875c-.52.09-1.174.134-1.965.134-.79 0-1.445-.045-1.965-.134l3.568-5.406c-.881-.378-1.559-.932-2.055-1.663-.497-.732-.746-1.572-.746-2.527 0-1.418.497-2.57 1.491-3.457.994-.886 2.327-1.33 3.975-1.33h5.939l-.022 14.383h.001zm-5.895-11.458c-.519 0-.949.156-1.309.465-.362.31-.542.754-.542 1.353 0 .598.18 1.04.542 1.352.36.312.812.466 1.331.466h2.259V15.72h-2.281v-.001z" fill="#333"/><path d="M0 27.294h27.634V.177H0v27.117zm24.18-3.391H3.456V3.565H24.18v20.338zm-7.017-1.163l-9.176-9.005 9.176-9.006v4.793l-4.293 4.213 4.293 4.212v4.793z" fill="#ED1C24"/></svg>